<?xml version="1.0" standalone="no"?>
<!DOCTYPE svg PUBLIC "-//W3C//DTD SVG 20010904//EN"
 "http://www.w3.org/TR/2001/REC-SVG-20010904/DTD/svg10.dtd">
<svg version="1.0" xmlns="http://www.w3.org/2000/svg"
 width="500.000000pt" height="500.000000pt" viewBox="0 0 500.000000 500.000000"
 preserveAspectRatio="xMidYMid meet">
<metadata>
Created by potrace 1.14, written by Peter Selinger 2001-2017
</metadata>
<g transform="translate(0.000000,500.000000) scale(0.100000,-0.100000)"
fill="#000000" stroke="none">
<path d="M2385 4522 c-3 -3 -24 -7 -47 -8 -24 -2 -54 -5 -68 -8 -14 -2 -43 -7
-65 -11 -88 -12 -238 -48 -302 -71 -38 -14 -72 -26 -78 -27 -5 -2 -14 -5 -20
-9 -5 -3 -26 -9 -45 -13 -19 -4 -41 -11 -50 -16 -36 -21 -83 -36 -127 -41 -7
-1 -13 -6 -13 -13 0 -11 -95 -77 -155 -108 -16 -8 -40 -25 -52 -36 -12 -12
-25 -21 -28 -21 -8 0 -89 -64 -125 -98 -14 -14 -42 -38 -63 -56 -59 -48 -244
-236 -232 -236 3 0 -3 -8 -13 -18 -9 -10 -26 -30 -37 -45 -11 -15 -26 -27 -33
-27 -7 0 -10 -4 -7 -10 3 -5 0 -10 -8 -10 -8 0 -22 -9 -33 -21 -16 -17 -16
-22 -4 -30 12 -8 12 -12 2 -16 -6 -2 -10 -8 -7 -13 3 -5 -4 -11 -15 -15 -11
-4 -18 -11 -15 -16 4 -5 1 -9 -5 -9 -6 0 -8 -4 -5 -10 4 -6 -1 -7 -11 -3 -11
4 -15 2 -11 -4 4 -6 0 -13 -8 -16 -10 -4 -12 -1 -8 11 7 18 5 17 -15 -10 -10
-12 -10 -18 -1 -24 8 -5 9 -3 4 6 -5 8 -4 11 3 6 6 -3 8 -16 6 -29 -3 -12 -6
-27 -6 -34 -1 -7 -6 -9 -11 -6 -7 4 -8 -1 -3 -13 4 -10 4 -15 0 -12 -8 9 -44
-9 -44 -22 0 -6 5 -10 11 -10 5 0 7 5 3 12 -4 7 -3 8 4 4 13 -8 -5 -46 -21
-46 -4 0 -5 -4 -2 -10 11 -18 11 -90 0 -86 -5 2 -9 9 -7 15 2 9 -3 9 -17 1
-22 -11 -37 -30 -24 -30 5 0 9 -9 10 -21 1 -12 -3 -18 -10 -16 -7 3 -11 9 -10
14 1 5 -5 10 -13 10 -10 0 -11 -4 -4 -11 5 -5 10 -20 10 -33 0 -13 4 -23 10
-23 5 0 7 8 4 18 -5 14 -4 14 4 2 7 -9 7 -18 1 -26 -5 -7 -8 -18 -7 -25 2 -7
-3 -13 -9 -14 -7 0 -12 -4 -10 -8 1 -5 -6 -13 -15 -18 -10 -5 -15 -16 -12 -24
4 -8 1 -15 -4 -15 -6 0 -9 12 -7 28 2 15 2 21 -1 14 -3 -6 -11 -9 -16 -6 -7 5
-8 2 -3 -6 6 -10 4 -12 -8 -7 -10 3 -17 2 -17 -3 0 -6 -5 -10 -11 -10 -5 0 -8
4 -5 8 8 13 -42 8 -56 -6 -20 -20 1 -26 23 -6 l22 19 -18 -35 -18 -35 24 20
c13 11 18 13 12 5 -17 -19 -16 -33 1 -27 11 5 13 0 6 -23 -6 -22 -4 -32 7 -42
9 -7 18 -12 20 -10 1 1 3 0 3 -3 0 -3 0 -7 0 -10 0 -3 -10 0 -23 6 -21 12 -21
11 -4 -8 22 -25 22 -39 -1 -22 -15 12 -16 12 -5 -2 7 -9 9 -20 5 -24 -4 -5 1
-5 11 -2 13 5 16 3 10 -6 -4 -6 -8 -18 -9 -25 -3 -14 30 -34 40 -24 4 3 4 -2
0 -12 -5 -14 -9 -15 -15 -4 -6 9 -9 9 -9 1 0 -6 5 -15 10 -18 6 -3 10 -11 10
-17 0 -6 -7 -5 -17 3 -17 13 -17 13 0 -7 9 -11 17 -24 17 -27 0 -4 -8 -7 -17
-7 -11 0 -14 -3 -7 -8 13 -9 14 -42 1 -42 -5 0 -4 -6 2 -14 9 -10 9 -16 1 -21
-8 -5 -8 -11 1 -21 9 -11 9 -14 0 -14 -8 0 -9 -5 -2 -18 6 -11 6 -24 1 -32 -5
-8 -5 -19 0 -25 5 -6 5 -17 0 -24 -4 -8 -6 -20 -3 -28 3 -7 0 -13 -7 -13 -6 0
-8 -5 -3 -12 11 -19 13 -39 2 -32 -12 7 -11 -3 2 -28 8 -15 8 -19 0 -14 -15
10 -14 -7 2 -24 9 -11 8 -11 -7 0 -18 14 -19 13 -13 -2 4 -13 2 -15 -11 -11
-14 5 -14 3 3 -18 13 -15 14 -19 3 -11 -11 9 -18 10 -23 2 -3 -5 0 -10 7 -10
9 0 9 -3 -2 -10 -11 -7 -11 -10 -2 -10 7 0 10 -5 7 -10 -4 -6 -11 -7 -17 -4
-7 5 -8 2 -3 -6 6 -10 12 -9 25 7 12 16 21 18 33 11 20 -10 13 -30 -7 -22 -14
5 -43 -23 -32 -33 3 -3 6 -1 6 5 0 7 8 12 18 12 14 0 15 -2 2 -10 -12 -8 -10
-10 10 -10 20 0 22 -2 10 -10 -12 -8 -11 -10 6 -10 18 0 23 -10 34 -62 7 -35
17 -69 23 -75 5 -7 6 -13 3 -13 -4 0 -2 -9 4 -20 8 -15 6 -21 -10 -30 -16 -8
-18 -15 -11 -29 7 -12 6 -22 -1 -29 -15 -15 -6 -24 25 -26 14 0 23 -4 20 -9
-2 -4 0 -7 4 -7 5 0 10 -12 11 -26 1 -15 8 -34 15 -42 10 -13 9 -14 -3 -7 -12
6 -13 5 -2 -6 6 -7 12 -21 12 -31 0 -10 5 -18 11 -18 5 0 7 -5 4 -11 -4 -5 1
-20 12 -31 10 -12 12 -18 6 -14 -18 10 -16 -2 2 -21 8 -8 13 -19 10 -24 -4 -5
-1 -9 4 -9 6 0 11 -7 11 -16 0 -9 5 -12 13 -8 6 4 9 4 5 -1 -4 -4 1 -24 12
-45 11 -21 16 -40 13 -44 -4 -3 -1 -6 5 -6 7 0 12 -9 12 -20 0 -11 5 -20 11
-20 7 0 9 -9 6 -21 -4 -16 -3 -18 8 -9 10 9 13 7 11 -7 -2 -10 4 -24 13 -31
14 -12 14 -13 -2 -8 -14 5 -16 2 -8 -13 6 -10 7 -22 3 -26 -4 -5 -1 -5 5 -1
16 9 17 -10 3 -19 -8 -5 -7 -12 2 -23 11 -13 10 -15 -5 -9 -11 4 -16 3 -12 -4
4 -6 12 -8 19 -6 8 3 11 -6 10 -29 -2 -25 1 -34 17 -39 10 -4 17 -11 13 -16
-3 -6 5 -8 20 -5 14 3 28 1 31 -4 3 -5 -3 -7 -14 -5 -16 3 -91 -38 -91 -50 0
-6 31 6 56 22 18 11 20 10 20 -12 0 -13 -4 -21 -8 -19 -5 3 -6 10 -3 15 4 5 1
9 -5 9 -6 0 -13 -7 -16 -15 -4 -8 -9 -13 -13 -10 -4 2 -8 -2 -8 -10 0 -18 14
-20 20 -2 2 6 8 9 12 5 4 -4 2 -14 -5 -23 -15 -18 1 -20 18 -3 7 7 12 8 13 3
0 -6 2 -18 4 -28 2 -9 -1 -15 -5 -12 -5 3 -11 1 -15 -5 -4 -6 5 -10 20 -10 17
0 24 4 19 12 -4 7 -3 8 4 4 7 -4 12 -14 12 -22 0 -9 5 -12 12 -8 8 5 9 2 5 -9
-3 -9 -3 -16 1 -16 19 3 25 -2 12 -11 -9 -6 -10 -10 -3 -10 16 0 26 17 13 25
-5 3 -10 11 -10 16 0 6 5 7 12 3 7 -4 8 -3 4 5 -4 6 -11 9 -15 7 -4 -3 -12 4
-19 14 -7 12 -8 21 -2 25 6 4 8 11 5 16 -3 5 1 6 8 3 17 -6 30 -39 29 -72 -1
-15 3 -20 11 -15 7 4 4 -6 -7 -21 -10 -16 -13 -25 -7 -22 6 4 11 3 11 -2 0 -6
7 -13 16 -16 8 -3 12 -2 9 4 -11 17 7 11 21 -7 9 -14 10 -21 1 -32 -9 -12 -9
-13 1 -7 6 4 12 2 12 -3 0 -6 -5 -11 -12 -11 -6 0 -8 -3 -5 -6 11 -12 36 17
30 34 -4 14 -3 14 5 3 8 -11 6 -24 -5 -45 l-15 -31 25 30 c14 17 29 27 33 23
4 -5 2 -8 -5 -8 -10 0 -10 -5 1 -22 8 -13 14 -31 12 -41 -1 -9 2 -15 7 -11 5
3 6 10 3 16 -5 7 -1 9 9 5 9 -3 23 1 32 9 8 9 15 12 15 7 0 -13 -14 -30 -30
-36 -8 -3 4 -4 27 -2 40 3 41 3 37 -23 -3 -15 -2 -24 1 -20 4 4 26 -12 49 -35
63 -63 131 -124 123 -110 -5 9 0 8 19 -2 14 -7 35 -12 45 -10 11 2 19 -1 19
-7 0 -5 7 -8 15 -5 8 4 17 1 21 -5 4 -7 3 -8 -4 -4 -7 4 -12 0 -12 -10 0 -16
-1 -16 -18 -1 -21 20 -32 22 -32 6 0 -5 4 -8 9 -4 6 3 14 -2 19 -11 6 -11 14
-14 23 -8 21 13 38 13 46 1 3 -7 3 -9 -2 -5 -4 4 -15 2 -23 -5 -13 -10 -14 -9
-7 3 8 13 7 13 -11 0 -29 -22 -30 -24 -12 -17 9 3 22 -1 30 -10 11 -14 11 -16
-2 -11 -11 4 -15 -1 -15 -18 0 -23 0 -23 15 -4 13 16 18 17 32 6 10 -7 14 -16
10 -21 -4 -4 3 -1 16 6 12 8 22 18 22 23 0 4 9 -2 19 -15 21 -26 17 -47 -5
-28 -7 6 -11 16 -7 23 4 6 -1 5 -10 -3 -17 -13 -24 -26 -9 -18 10 7 32 -19 24
-28 -4 -4 4 -2 18 5 23 12 24 12 11 -4 -8 -9 -10 -16 -5 -15 21 4 28 -2 14
-12 -13 -9 -13 -10 0 -6 8 2 14 11 12 21 -2 9 2 16 8 16 6 0 9 -4 6 -9 -6 -9
22 -26 38 -22 5 1 3 -6 -5 -15 -9 -12 -9 -15 -1 -10 7 4 12 2 12 -5 0 -8 4 -8
15 1 13 11 14 10 8 -5 -5 -15 -3 -17 11 -12 10 4 15 3 11 -3 -3 -6 -1 -10 5
-10 6 0 9 -4 6 -8 -2 -4 4 -9 15 -9 10 -1 26 -8 34 -16 8 -9 24 -13 35 -10 12
3 20 0 20 -6 0 -7 5 -9 13 -4 19 12 36 12 44 1 4 -7 1 -8 -8 -3 -8 5 -11 4 -6
0 4 -5 25 -8 47 -8 22 0 40 -4 40 -9 0 -6 7 -5 15 2 9 7 15 8 15 2 0 -6 8 -9
18 -7 9 1 25 -2 36 -7 13 -7 16 -7 12 1 -4 6 -2 11 3 11 6 0 11 -4 11 -8 0 -5
14 -7 30 -6 17 1 32 -2 35 -7 3 -4 17 -4 30 1 14 5 25 6 25 2 0 -11 5 -11 341
-15 157 -2 291 -7 299 -12 8 -5 11 -4 7 2 -5 8 13 11 53 10 33 -1 60 1 60 6 0
4 11 5 24 1 14 -3 31 -2 38 2 19 12 48 12 48 0 0 -6 5 -4 10 4 7 12 10 12 10
1 0 -7 6 -11 14 -8 8 3 17 -1 20 -10 4 -8 13 -13 21 -9 8 3 15 2 15 -3 0 -12
73 -6 112 9 18 8 57 29 86 47 29 18 57 33 62 33 6 0 10 5 10 11 0 5 5 7 10 4
6 -3 10 -1 10 4 0 6 11 11 25 11 14 0 25 5 25 12 0 6 3 8 6 5 4 -3 16 -1 28 5
11 7 24 11 29 10 4 -1 7 3 7 9 0 5 4 7 10 4 6 -3 7 1 4 9 -3 9 -2 16 3 16 5 0
10 7 10 15 0 8 -5 15 -10 15 -5 0 -7 9 -4 20 3 11 1 20 -3 20 -5 0 -7 9 -5 20
2 11 -1 20 -6 20 -6 0 -7 5 -4 10 4 6 1 9 -7 8 -7 -2 -12 3 -10 11 2 9 -3 11
-13 7 -9 -3 -14 -2 -10 3 3 5 -1 12 -7 14 -12 5 16 11 35 8 4 0 7 4 7 10 0 6
-8 8 -19 4 -14 -4 -23 0 -31 17 -9 19 -9 21 2 7 13 -16 38 -15 38 2 0 6 -5 7
-12 3 -6 -4 -8 -3 -4 4 3 5 0 13 -6 15 -9 4 -10 6 -1 6 6 1 15 -4 18 -9 5 -8
12 -7 23 2 15 12 16 11 3 -4 -9 -12 -10 -18 -2 -18 6 0 20 15 31 32 11 18 20
27 20 20 0 -7 4 -11 10 -7 5 3 7 12 3 20 -3 9 1 15 11 15 9 0 13 6 10 14 -3 8
-1 17 5 21 7 3 8 0 5 -9 -4 -11 0 -14 15 -11 28 5 42 15 37 24 -3 3 4 7 14 7
15 0 16 -4 9 -18 -6 -10 -14 -16 -20 -13 -5 4 -9 2 -9 -4 0 -5 -9 -8 -20 -6
-13 3 -18 0 -14 -7 5 -7 2 -8 -6 -3 -9 5 -11 4 -6 -3 5 -8 1 -10 -11 -6 -14 4
-15 4 -4 -4 10 -7 11 -14 2 -28 -8 -14 -11 -15 -11 -4 0 13 -1 13 -10 0 -9
-13 -10 -13 -10 0 -1 8 -8 2 -16 -13 -9 -16 -13 -31 -10 -35 3 -3 6 1 6 9 0
12 2 11 11 -1 8 -11 9 -9 3 10 -6 22 -5 23 9 12 11 -9 17 -10 22 -2 4 6 14 9
22 5 14 -5 14 -3 2 12 -12 15 -12 16 3 10 10 -3 20 -1 24 5 4 6 3 8 -4 4 -17
-10 -23 10 -7 24 10 9 15 9 15 1 0 -6 5 -11 11 -11 5 0 7 5 4 10 -3 6 1 10 9
10 8 0 18 9 21 20 4 11 11 18 16 15 5 -3 6 1 3 9 -4 10 -1 16 9 16 11 0 14 -7
11 -24 -2 -14 0 -27 6 -31 5 -3 7 0 4 9 -4 12 1 14 23 11 15 -2 22 -2 15 1
-18 8 -4 24 16 18 14 -5 15 -4 2 5 -11 7 -19 6 -31 -5 -9 -8 -19 -11 -22 -6
-4 4 3 16 14 25 16 14 24 15 41 6 14 -8 18 -8 14 0 -13 20 -15 51 -4 51 7 0 4
6 -7 13 -17 13 -13 43 5 32 5 -3 11 -1 15 5 4 6 11 7 17 4 8 -5 9 -1 5 10 -4
9 -3 15 2 12 5 -3 15 2 22 12 7 9 10 14 5 10 -16 -13 -45 10 -39 32 3 11 10
17 16 13 6 -4 8 0 4 9 -3 9 3 24 14 34 10 9 19 25 19 36 0 10 4 18 9 18 4 0
21 19 37 43 16 23 32 44 35 47 3 3 14 20 24 38 11 17 23 32 27 32 4 0 8 6 8
13 0 8 11 27 25 43 14 16 35 45 47 64 12 19 24 37 28 40 6 6 65 122 65 130 0
3 3 10 7 15 3 6 9 27 13 47 4 20 15 45 26 57 10 11 19 23 19 26 0 3 12 17 26
30 15 14 23 25 18 25 -5 0 -2 5 6 10 15 9 16 13 19 45 1 18 27 20 34 3 4 -10
6 -10 6 0 1 8 6 10 14 6 9 -6 9 -5 0 7 -10 12 -8 17 8 28 20 12 20 13 2 27
-10 9 -13 13 -8 10 6 -2 16 4 23 15 8 12 9 19 1 19 -5 0 -7 5 -4 10 3 5 0 10
-8 10 -17 0 -13 38 9 87 8 17 14 38 14 48 0 9 5 13 10 10 6 -3 10 -1 10 5 0 6
3 9 8 6 4 -2 16 2 27 10 10 8 14 14 8 14 -7 0 -14 -4 -18 -10 -3 -5 -12 -7
-20 -4 -14 6 -17 74 -3 74 4 0 6 8 6 18 0 9 2 31 6 47 18 91 28 436 13 468 -6
14 -3 23 10 33 11 9 13 13 4 12 -7 -2 -16 3 -19 11 -3 9 0 11 9 6 11 -6 12 -5
2 6 -15 15 -17 33 -4 24 5 -3 13 0 17 7 4 7 4 10 -1 6 -4 -4 -14 -3 -22 3 -10
9 -10 15 -2 25 9 11 8 14 -2 14 -11 0 -11 2 1 10 8 5 10 10 5 10 -6 0 -12 12
-13 28 -1 15 -7 29 -12 30 -6 2 -8 8 -4 13 3 5 -1 9 -8 10 -7 0 -4 4 7 9 16 7
17 9 3 9 -9 1 -20 6 -24 13 -4 7 -3 8 5 4 6 -4 2 9 -9 29 -11 19 -20 49 -20
66 0 17 -4 28 -9 24 -16 -9 -5 45 12 66 12 13 13 19 4 19 -7 0 -18 9 -25 21
-8 12 -9 18 -3 15 5 -4 9 2 8 13 -1 18 -27 19 -27 0 0 -5 -7 -9 -16 -9 -11 0
-14 6 -9 20 4 11 3 20 -2 19 -23 -4 -30 3 -27 27 1 15 -5 33 -16 44 -11 11
-17 30 -16 48 1 17 -1 29 -5 26 -4 -2 -9 3 -12 10 -3 8 -1 16 6 19 6 2 0 13
-16 27 -15 13 -27 30 -27 37 0 7 -4 13 -10 13 -5 0 -10 7 -10 15 0 8 -4 15
-10 15 -5 0 -10 7 -10 15 0 8 -9 19 -20 25 -11 6 -19 14 -16 18 2 4 -11 25
-30 47 -19 22 -34 44 -34 49 0 5 -11 19 -26 32 -14 13 -23 24 -20 24 2 0 -18
24 -45 53 -27 28 -55 66 -63 82 -15 32 -53 68 -76 73 -7 2 -32 22 -55 45 -55
55 -73 69 -148 118 -34 23 -74 50 -89 60 -15 11 -32 19 -38 19 -5 0 -10 5 -10
10 0 6 -5 10 -11 10 -6 0 -25 10 -42 22 -18 13 -34 22 -37 22 -3 -1 -41 16
-85 38 -76 37 -253 104 -304 114 -13 3 -31 9 -40 14 -20 10 -166 42 -301 65
-14 3 -43 7 -65 9 -22 3 -40 5 -40 6 0 5 -225 7 -230 2z m-1759 -1328 c-15
-15 -32 -8 -32 14 0 15 4 16 22 8 15 -7 18 -13 10 -22z m-16 -34 c0 -5 -4 -10
-10 -10 -5 0 -10 5 -10 10 0 6 5 10 10 10 6 0 10 -4 10 -10z m-52 -135 c-3 -3
-9 2 -12 12 -6 14 -5 15 5 6 7 -7 10 -15 7 -18z m-58 -104 c0 -4 -10 -7 -22
-5 -31 3 -30 3 -24 13 7 10 46 3 46 -8z m310 -1605 c14 -18 14 -19 -8 -7 -12
7 -20 17 -16 22 3 6 7 9 8 7 1 -2 8 -12 16 -22z m33 -56 c-27 -11 -32 -25 -5
-15 14 5 15 4 5 -6 -10 -10 -16 -10 -25 -1 -10 10 -10 15 2 22 8 5 22 9 30 9
8 0 5 -4 -7 -9z m132 -180 c-3 -5 -12 -10 -18 -10 -7 0 -6 4 3 10 19 12 23 12
15 0z m10 -60 c3 -5 1 -10 -4 -10 -6 0 -11 5 -11 10 0 6 2 10 4 10 3 0 8 -4
11 -10z m-6 -41 c-15 -9 -32 -2 -24 11 3 5 13 6 21 3 12 -4 13 -8 3 -14z m51
-15 c0 -8 -19 -13 -24 -6 -3 5 1 9 9 9 8 0 15 -2 15 -3z m2834 -38 c-3 -9 -12
-16 -19 -16 -16 0 -28 -28 -18 -43 14 -22 10 -32 -18 -55 -16 -13 -29 -18 -29
-12 0 6 -5 8 -10 5 -6 -4 -23 -8 -38 -10 -15 -2 -21 -2 -15 1 7 3 14 4 15 3 2
-2 16 9 32 24 16 15 32 24 36 22 4 -3 10 2 13 10 4 9 1 12 -9 8 -9 -3 -14 1
-14 13 0 16 2 17 10 4 8 -13 10 -12 11 5 1 11 1 23 0 28 0 4 2 6 7 6 4 -1 14
-1 22 0 13 1 13 3 0 12 -13 9 -12 10 3 5 9 -3 17 0 17 6 0 6 2 9 5 6 3 -3 3
-13 -1 -22z m-2773 -49 c-1 -12 -15 -9 -19 4 -3 6 1 10 8 8 6 -3 11 -8 11 -12z
m20 -20 c-10 -9 -11 -8 -5 6 3 10 9 15 12 12 3 -3 0 -11 -7 -18z m2668 0 c-2
-1 -13 -9 -24 -17 -19 -14 -19 -14 -6 3 7 9 18 17 24 17 6 0 8 -1 6 -3z
m-2364 -186 c-4 -3 -9 -1 -13 5 -4 6 -15 10 -25 8 -15 -2 -16 0 -6 12 10 13
14 12 30 -2 11 -10 17 -20 14 -23z m2155 29 c0 -5 -5 -10 -11 -10 -5 0 -7 5
-4 10 3 6 8 10 11 10 2 0 4 -4 4 -10z m-2080 -151 c0 -5 3 -8 8 -5 4 2 15 -2
25 -9 12 -8 14 -15 8 -20 -6 -3 -11 -1 -11 5 0 6 -4 9 -9 6 -4 -3 -16 3 -26
14 -10 12 -13 20 -7 20 7 0 12 -5 12 -11z"/>
<path d="M3784 828 c-11 -17 6 -22 22 -7 13 14 13 16 -1 16 -9 0 -18 -4 -21
-9z"/>
<path d="M540 3222 c0 -12 3 -12 15 -2 8 7 15 13 15 15 0 1 -7 2 -15 2 -8 0
-15 -7 -15 -15z"/>
<path d="M361 3096 c-9 -11 -9 -16 0 -21 8 -6 7 -10 -2 -16 -10 -6 -10 -9 -2
-9 17 0 25 17 13 25 -8 5 -7 11 1 21 6 8 9 14 6 14 -2 0 -10 -6 -16 -14z"/>
<path d="M377 3045 c-13 -18 -14 -25 -5 -31 7 -4 10 -3 5 1 -4 5 3 19 15 32
12 13 17 23 12 23 -5 0 -17 -11 -27 -25z"/>
<path d="M422 2154 c-7 -8 -10 -20 -5 -27 4 -6 8 -16 8 -21 0 -5 6 -11 14 -14
9 -3 12 0 8 10 -3 9 0 21 6 27 7 7 8 12 2 11 -21 -4 -30 1 -16 9 7 5 9 11 5
14 -5 3 -15 -1 -22 -9z"/>
<path d="M760 1270 c-9 -6 -10 -10 -3 -10 6 0 15 5 18 10 8 12 4 12 -15 0z"/>
<path d="M775 1252 c-15 -11 -41 -47 -29 -39 6 4 20 -3 30 -15 17 -19 17 -21
2 -15 -10 3 -20 2 -23 -3 -8 -12 45 -5 58 9 9 9 8 11 -4 6 -9 -3 -23 3 -34 15
-10 11 -13 20 -7 20 6 0 14 -4 17 -10 3 -5 11 -10 18 -10 6 0 3 6 -8 13 -10 8
-15 19 -11 25 8 14 5 15 -9 4z"/>
<path d="M905 1081 c-3 -6 5 -15 17 -21 21 -10 21 -10 6 3 -10 8 -15 17 -11
20 3 4 4 7 0 7 -3 0 -8 -4 -12 -9z"/>
<path d="M3886 972 c-3 -5 1 -9 9 -9 8 0 12 4 9 9 -3 4 -7 8 -9 8 -2 0 -6 -4
-9 -8z"/>
<path d="M953 935 c0 -8 4 -15 9 -15 4 0 8 4 8 9 0 6 -4 12 -8 15 -5 3 -9 -1
-9 -9z"/>
<path d="M980 940 c0 -5 5 -10 11 -10 5 0 7 5 4 10 -3 6 -8 10 -11 10 -2 0 -4
-4 -4 -10z"/>
<path d="M910 906 c0 -2 7 -7 16 -10 8 -3 12 -2 9 4 -6 10 -25 14 -25 6z"/>
<path d="M3847 878 c2 -5 13 -6 23 -3 12 4 22 -1 29 -12 6 -10 11 -13 11 -6 0
6 -6 15 -12 20 -17 11 -58 11 -51 1z"/>
<path d="M1016 838 c3 -5 10 -6 15 -3 13 9 11 12 -6 12 -8 0 -12 -4 -9 -9z"/>
<path d="M894 822 c4 -3 14 -7 22 -8 9 -1 13 0 10 4 -4 3 -14 7 -22 8 -9 1
-13 0 -10 -4z"/>
<path d="M975 820 c-3 -5 -1 -10 4 -10 6 0 11 5 11 10 0 6 -2 10 -4 10 -3 0
-8 -4 -11 -10z"/>
<path d="M3870 809 c5 -9 6 -20 2 -24 -4 -5 -1 -5 6 -1 7 5 11 11 8 14 -3 3
-2 10 4 16 6 8 3 12 -10 12 -14 0 -16 -4 -10 -17z"/>
<path d="M1076 793 c-6 -14 -5 -15 5 -6 7 7 10 15 7 18 -3 3 -9 -2 -12 -12z"/>
<path d="M840 780 c-12 -7 -10 -9 7 -7 12 0 19 5 17 9 -6 10 -6 10 -24 -2z"/>
<path d="M776 735 c-9 -26 -7 -32 5 -12 6 10 9 21 6 23 -2 3 -7 -2 -11 -11z"/>
<path d="M3747 736 c-4 -9 -2 -18 4 -21 5 -4 6 -11 3 -17 -4 -6 -2 -8 4 -4 6
3 9 16 7 28 -6 28 -11 32 -18 14z"/>
<path d="M3715 701 c-3 -5 -2 -12 3 -15 5 -3 9 1 9 9 0 17 -3 19 -12 6z"/>
<path d="M1510 476 c0 -3 9 -10 20 -16 11 -6 20 -8 20 -6 0 3 -9 10 -20 16
-11 6 -20 8 -20 6z"/>
</g>
</svg>
